<svg xmlns="http://www.w3.org/2000/svg" xmlns:xlink="http://www.w3.org/1999/xlink" xml:space="preserve" width="90mm" height="90mm" version="1.1" style="shape-rendering:geometricPrecision; text-rendering:geometricPrecision; image-rendering:optimizeQuality; fill-rule:evenodd; clip-rule:evenodd" viewBox="0 0 9000 9000"><defs><style type="text/css">.fil0 {fill:#5e5e5e}</style></defs><g><metadata/><path class="fil0" d="M5000 5000l-500 0 0 -1 -1 0c-828 0 -1500 672 -1500 1500 0 829 672 1500 1500 1500l1 0 0 1 500 0 0 -499 -500 0 0 -2 -1 0c-552 0 -1000 -447 -1000 -1000 0 -552 448 -1000 1000 -1000l1 0 500 0 0 -499z"/><path class="fil0" d="M7501 5000l-500 0 0 -1 -1 0c-828 0 -1500 672 -1500 1500 0 829 672 1500 1500 1500l1 0 0 1 500 0 0 -499 -500 0 0 -2 -1 0c-552 0 -1000 -447 -1000 -1000 0 -552 448 -1000 1000 -1000l1 0 500 0 0 -499z"/><path class="fil0" d="M5000 3500c0 -1381 1119 -2500 2500 -2500l0 500c-1105 0 -2000 895 -2000 2000 0 276 -224 500 -500 500l-1000 0c-1105 0 -2000 895 -2000 2000l-500 0c0 -1381 1119 -2500 2500 -2500l1000 0z"/></g></svg>
