<svg fill="#777777" stroke-width="0" fill-rule="evenodd" height="248.03149" image-rendering="optimizeQuality" shape-rendering="geometricPrecision" text-rendering="geometricPrecision" viewBox="0 0 70 70" width="248.03149" xml:space="preserve" xmlns="http://www.w3.org/2000/svg"><defs></defs>
  <path d="m40,70c-10,0-20,0-20-15s10-15 20-15v5c-10,0-15,0-15,10s5,10 15,10v5z"></path>
  <path d="m5,50c0-15 15-25 25-25h10c0-10 15-25 25-25v5c-5,0-20,10-20,25h-15c-10,0-20,10-20,20h-5z"></path>
  <path d="m65,70c-10,0-20,0-20-15s10-15 20-15v5c-10,0-15,0-15,10s5,10 15,10v5z"></path>
</svg>
